<?xml version="1.0" encoding="UTF-8" standalone="no"?>
<!-- Created with Inkscape (http://www.inkscape.org/) -->

<svg
   width="16"
   height="16"
   viewBox="0 0 4.2333333 4.2333333"
   version="1.1"
   id="svg5"
   inkscape:version="1.2 (dc2aeda, 2022-05-15)"
   sodipodi:docname="favicon.svg"
   xml:space="preserve"
   xmlns:inkscape="http://www.inkscape.org/namespaces/inkscape"
   xmlns:sodipodi="http://sodipodi.sourceforge.net/DTD/sodipodi-0.dtd"
   xmlns="http://www.w3.org/2000/svg"
   xmlns:svg="http://www.w3.org/2000/svg"><sodipodi:namedview
     id="namedview7"
     pagecolor="#ffffff"
     bordercolor="#666666"
     borderopacity="1.0"
     inkscape:showpageshadow="2"
     inkscape:pageopacity="0.0"
     inkscape:pagecheckerboard="0"
     inkscape:deskcolor="#d1d1d1"
     inkscape:document-units="mm"
     showgrid="true"
     showguides="true"
     inkscape:zoom="19.02887"
     inkscape:cx="0.9459311"
     inkscape:cy="10.011104"
     inkscape:window-width="1366"
     inkscape:window-height="744"
     inkscape:window-x="0"
     inkscape:window-y="24"
     inkscape:window-maximized="1"
     inkscape:current-layer="g1751"><inkscape:grid
       type="xygrid"
       id="grid182" /></sodipodi:namedview><defs
     id="defs2" /><g
     inkscape:label="Camada 1"
     inkscape:groupmode="layer"
     id="layer1"><g
       id="g1901"
       transform="matrix(0.47826485,0,0,0.47826485,-11.490943,5.0766489)"><g
         id="g479"
         style="stroke-width:0.132292;stroke-dasharray:none"><g
           id="g1751"
           transform="translate(19.251407,-1.3543061)"><g
             id="g943"
             transform="matrix(1.1907199,0,0,1.1907199,-1.7547427,1.766146)"><path
               style="fill:#83263b;fill-opacity:1;stroke:none;stroke-width:0.132292px;stroke-linecap:butt;stroke-linejoin:miter;stroke-opacity:1"
               d="m 9.2604169,-9.2604169 c 0.0202,2.5706244 0.9260411,2.1166669 0.3968748,3.5718752 C 10.343552,-6.8545196 9.525,-6.4822917 10.31875,-7.9375 c -0.264583,0.79375 -0.04032,1.3261623 0.488563,1.7227002 1.231229,0.9231331 2.02339,2.4304213 -0.265882,4.3880718 0.273842,-0.5224268 0.411631,-1.1623835 0.174194,-1.745147 -0.473049,0.208987 -0.58346,0.5146869 -0.7937498,0.7937499 0.017407,-0.2405789 0.2434018,-0.7105178 -0.2014076,-1.1592355 0.2648585,0.3550604 0.1366337,1.0062782 0.069116,1.2915272 -0.1322917,-0.2645833 -0.02887,-0.4480689 -0.396875,-0.79375 C 8.6574961,-3.901875 8.4666669,-4.3656251 8.4666669,-4.3656251 8.2848986,-4.0415059 8.417077,-3.5307877 8.5378812,-2.9387497 4.0422555,-5.509801 7.805209,-6.6145836 9.2604169,-9.2604169 Z"
               id="path1400"
               sodipodi:nodetypes="cccsccccccccc" /><path
               style="fill:#83263b;fill-opacity:1;stroke:none;stroke-width:0.0884634px;stroke-linecap:butt;stroke-linejoin:miter;stroke-opacity:1"
               d="M 8.5746636,-2.4268528 C 8.3696315,-3.2480778 8.2650469,-2.6305591 7.9120265,-3.115451 7.5408104,-3.6253355 7.2925083,-3.2903463 6.7213598,-3.7605513 c 0.525033,0.6318859 0.7683826,0.3231278 0.9950061,0.9515656 0.1487033,0.4123614 0.2788925,0.6141637 0.3713355,0.7294082 0.273289,0.3406972 0.046938,-1.0554935 0.4869622,-0.3472753 z"
               id="path1553"
               sodipodi:nodetypes="cscssc" /></g></g></g></g></g></svg>
