<?xml version="1.0" encoding="UTF-8" standalone="no"?>
<!-- Created with Inkscape (http://www.inkscape.org/) -->

<svg
   width="39"
   height="26"
   viewBox="0 0 10.318753 6.8791663"
   version="1.1"
   id="svg5"
   xml:space="preserve"
   inkscape:version="1.2 (dc2aeda, 2022-05-15)"
   sodipodi:docname="webprofile.svg"
   xmlns:inkscape="http://www.inkscape.org/namespaces/inkscape"
   xmlns:sodipodi="http://sodipodi.sourceforge.net/DTD/sodipodi-0.dtd"
   xmlns="http://www.w3.org/2000/svg"
   xmlns:svg="http://www.w3.org/2000/svg"><sodipodi:namedview
     id="namedview7"
     pagecolor="#ffffff"
     bordercolor="#666666"
     borderopacity="1.0"
     inkscape:showpageshadow="2"
     inkscape:pageopacity="0.0"
     inkscape:pagecheckerboard="0"
     inkscape:deskcolor="#d1d1d1"
     inkscape:document-units="mm"
     showgrid="true"
     showguides="true"
     inkscape:zoom="11.313709"
     inkscape:cx="21.478368"
     inkscape:cy="15.954097"
     inkscape:window-width="1366"
     inkscape:window-height="744"
     inkscape:window-x="0"
     inkscape:window-y="24"
     inkscape:window-maximized="1"
     inkscape:current-layer="g1673"><inkscape:grid
       type="xygrid"
       id="grid182"
       originx="0"
       originy="0" /></sodipodi:namedview><defs
     id="defs2" /><g
     inkscape:label="Camada 1"
     inkscape:groupmode="layer"
     id="layer1"><g
       inkscape:label="Camada 1"
       id="layer1-3"
       transform="scale(2)"><g
         id="g1806"
         transform="translate(-2.645834,8.2020836)"><g
           id="g1901"><g
             id="g479"
             style="stroke-width:0.132292;stroke-dasharray:none"><g
               id="g1751"
               transform="translate(4.1010417,1.0583333)" /></g><g
             id="g336"
             transform="matrix(0.53191489,0,0,0.53191489,1.2384755,-3.8392732)"><g
               id="g475"
               transform="matrix(0.99264009,0,0,0.99264009,0.01947311,-2.9493631)"><g
                 id="g511"><g
                   id="g547"><g
                     id="g1385"
                     transform="translate(-0.75165711,-0.7516571)"><g
                       id="g1420"><g
                         id="g1455"
                         transform="matrix(0.99989807,0,0,1,3.4630171e-4,0)"><g
                           id="g1570"><g
                             id="g1585"><g
                               id="g1600"><g
                                 id="g1646"
                                 transform="translate(-1.7941542,-0.50469488)"><g
                                   id="g1659"
                                   transform="translate(3.1632112e-8,-0.05110516)"><g
                                   id="g1673"><g
                                   id="g1686"><g
                                   id="g465"
                                   style="fill:#83263b;fill-opacity:1;stroke-width:0.132292;stroke-dasharray:none"
                                   transform="matrix(1.3227973,0,0,1.3227973,-1.5253671,1.0371038)"><g
                                   id="g1769"
                                   transform="matrix(1.0146103,0,0,1.0146103,3.467191,-4.0644298)"
                                   style="fill:#83263b;fill-opacity:1"><g
                                   id="g1672"
                                   style="fill:#83263b;fill-opacity:1;stroke-width:0.132292;stroke-dasharray:none"><path
                                   id="rect236"
                                   style="fill:#83263b;fill-opacity:1;stroke-width:0.132292;stroke-linecap:round;stroke-linejoin:bevel;stroke-dasharray:none"
                                   d="M 1.5875,0.26458333 V 1.0583333 H 1.8520834 V 3.96875 L 2.6458334,3.175 V 0.26458333 Z"
                                   sodipodi:nodetypes="ccccccc" /><path
                                   id="rect292"
                                   style="fill:#83263b;fill-opacity:1;stroke-width:0.132292;stroke-linecap:round;stroke-linejoin:bevel;stroke-dasharray:none"
                                   d="m 3.175,1.0583333 v 1.5875 L 3.7041667,3.175 V 1.0583333 Z" /><path
                                   id="rect348"
                                   style="fill:#83263b;fill-opacity:1;stroke-width:0.132292;stroke-linecap:round;stroke-linejoin:bevel;stroke-dasharray:none"
                                   d="M 3.96875,0.26458333 V 3.4395833 L 4.4979167,3.96875 V 0.26458333 Z" /><rect
                                   style="fill:#83263b;fill-opacity:1;stroke:none;stroke-width:0.132292;stroke-linecap:round;stroke-linejoin:bevel;stroke-dasharray:none"
                                   id="rect1110"
                                   width="0.66145855"
                                   height="1.7197918"
                                   x="4.630208"
                                   y="0.26458323"
                                   ry="0.33072919" /><path
                                   id="path1056"
                                   style="fill:#83263b;fill-opacity:1;stroke-width:0.132292;stroke-linecap:round;stroke-linejoin:bevel;stroke-dasharray:none"
                                   d="M 4.3656251,0.26458333 V 1.984375 H 4.9609375 V 0.26458333 Z" /></g></g></g><g
                                   id="g439"
                                   transform="matrix(0.87047646,0,0,0.86945482,0.97724587,2.9476844)"><path
                                   style="fill:#83263b;fill-opacity:1;stroke:none;stroke-width:0.132292px;stroke-linecap:butt;stroke-linejoin:miter;stroke-dasharray:none;stroke-opacity:1"
                                   d="m 13.326755,-7.9139118 c 0.0202,2.5706244 0.926041,2.1166669 0.396875,3.5718752 0.68626,-1.1659779 -0.132292,-0.79375 0.661458,-2.2489583 -0.264583,0.79375 -0.04032,1.3261623 0.488563,1.7227002 1.231229,0.9231331 2.02339,2.4304213 -0.265882,4.38807183 0.273842,-0.52242683 0.411631,-1.16238353 0.174194,-1.74514703 -0.473049,0.208987 -0.58346,0.5146869 -0.79375,0.7937499 0.01741,-0.2405789 0.243402,-0.7105178 -0.201407,-1.1592355 0.264858,0.3550604 0.136633,1.0062782 0.06912,1.2915272 -0.132292,-0.2645833 -0.02887,-0.4480689 -0.396875,-0.79375 -0.735213,-0.4622916 -0.926042,-0.9260417 -0.926042,-0.9260417 -0.181768,0.3241192 -0.04959,0.8348374 0.07121,1.4268754 -4.4956258,-2.5710513 -0.732672,-3.6758339 0.722536,-6.3216672 z"
                                   id="path1400"
                                   sodipodi:nodetypes="cccsccccccccc" /><path
                                   style="fill:#83263b;fill-opacity:1;stroke:none;stroke-width:0.0884634px;stroke-linecap:butt;stroke-linejoin:miter;stroke-dasharray:none;stroke-opacity:1"
                                   d="M 8.5746636,-2.4268528 C 8.3696315,-3.2480778 8.2650469,-2.6305591 7.9120265,-3.115451 7.5408104,-3.6253355 7.2925083,-3.2903463 6.7213598,-3.7605513 c 0.525033,0.6318859 0.7683826,0.3231278 0.9950061,0.9515656 0.1487033,0.4123614 0.2788925,0.6141637 0.3713355,0.7294082 0.273289,0.3406972 0.046938,-1.0554935 0.4869622,-0.3472753 z"
                                   id="path1553"
                                   sodipodi:nodetypes="cscssc"
                                   transform="translate(4.1010417,1.0583333)" /></g></g></g></g></g></g></g></g></g></g></g></g></g></g></g></g></g></g></g></svg>
